# xmcd
#
# Track frame offsets:
#	150
#	15354
#	28822
#	43599
#	56679
#	70882
#	85294
#	102376
#	117811
#	132143
#	147602
#	164711
#	179925
#	194832
#	212121
#
# Disc length: 3069 seconds
#
# Revision: 3
# Processed by: cddbd v1.5.2PL0 Copyright (c) Steve Scherf et al.
# Submitted via: audiograbber 1.83.01
#
DISCID=eb0bfb0f
DTITLE=Various Artist - CBE1-07
DYEAR=2000
DGENRE=Karaoke
TTITLE0=Lee Greenwood - God Bless The USA
TTITLE1=Janie Frickie - He's A Heartache(Looking For A Place To Happen)
TTITLE2=The Judds - Mama He's Crazy
TTITLE3=The Judds - Girl's Night Out
TTITLE4=Randy Travis - Diggin' Up Bones
TTITLE5=Ocean Front Property - George Strait
TTITLE6=Randy Travis - Forever And Ever, Amen
TTITLE7=George Strait - All My Exe's Live In Texas
TTITLE8=Kathy Mattea - Eighteen Wheels And A Dozen Roses
TTITLE9=Holly Dunn - Daddy's Hands
TTITLE10=Keith Whitley - Don't Close Your Eyes
TTITLE11=Forrester Sisters - Men
TTITLE12=Dwight Yoakum - Guitars And Cadillacs
TTITLE13=Dan Seals - Bop
TTITLE14=The Judds - Love Is Alive
EXTD=
EXTT0=
EXTT1=
EXTT2=
EXTT3=
EXTT4=
EXTT5=
EXTT6=
EXTT7=
EXTT8=
EXTT9=
EXTT10=
EXTT11=
EXTT12=
EXTT13=
EXTT14=
PLAYORDER=
